<svg id="Dibujo" xmlns="http://www.w3.org/2000/svg" xmlns:xlink="http://www.w3.org/1999/xlink" viewBox="0 0 150 150"><defs><pattern id="small_line_pattern" data-name="small line pattern" x="-451.28" y="-324.32" width="150" height="150" patternUnits="userSpaceOnUse" viewBox="0 0 150 150"><rect width="150" height="150" style="fill:none"/><path d="M310.77,305.77l-16.61-16.61-39.67-39.67L206.3,201.3l-41.5-41.5c-6.74-6.74-13.27-13.83-20.29-20.28a3.83,3.83,0,0,1-.28-.29c-3.22-3.22-8.22,1.78-5,5l16.61,16.61,39.67,39.67L243.7,248.7l41.5,41.5c6.74,6.74,13.27,13.83,20.29,20.28a3.83,3.83,0,0,1,.28.29c3.22,3.22,8.22-1.78,5-5Z" style="fill:#d0c5b6"/><path d="M324.91,291.63c-51.8-51.8-104.11-103.16-155.34-155.53-7.4-7.57-15.64-17.93-27.22-17.87-15.28.08-27.1,14.34-23.41,29.44,2.42,9.85,13.06,17.61,20,24.54l19.18,19.18,77.67,77.67c14.46,14.46,29,28.83,43.31,43.47,8,8.2,16.92,19.68,29.51,19.24,16.9-.59,30.52-21.22,19.44-36.09-6.24-8.36-17.59-13.48-27.37-7.18-8.27,5.34-13.86,18.4-7.17,27.37l26.13-19.53c-.94-.86-1.87-1.73-2.78-2.61-1.39-1.33-2.75-2.67-4.1-4-2.71-2.71-5.37-5.47-8.05-8.21-5.42-5.56-10.93-11-16.42-16.51L255.09,231.8,190.5,167.21l-33-33c-6.36-6.35-1.88-3.58-15,8.32-13.4,12.2-15.83,7.57-9.41,13.71,2.77,2.65,5.46,5.38,8.14,8.11q8.1,8.28,16.28,16.48l66.26,66.25,72.8,72.8c7.4,7.41,21,8,28.28,0S332.82,299.54,324.91,291.63Z" style="fill:#d0c5b6"/><path d="M160.77,305.77l-16.61-16.61-39.67-39.67L56.3,201.3,14.8,159.8C8.06,153.06,1.53,146-5.49,139.52a3.83,3.83,0,0,1-.28-.29c-3.22-3.22-8.22,1.78-5,5L5.84,160.84l39.67,39.67L93.7,248.7l41.5,41.5c6.74,6.74,13.27,13.83,20.29,20.28a3.83,3.83,0,0,1,.28.29c3.22,3.22,8.22-1.78,5-5Z" style="fill:#d0c5b6"/><path d="M174.91,291.63C123.11,239.83,70.8,188.47,19.57,136.1c-7.4-7.57-15.64-17.93-27.22-17.87-15.28.08-27.1,14.34-23.41,29.44,2.42,9.85,13.06,17.61,20,24.54L8.11,191.39l77.67,77.67c14.46,14.46,29,28.83,43.31,43.47,8,8.2,16.92,19.68,29.51,19.24,16.9-.59,30.52-21.22,19.44-36.09-6.24-8.36-17.59-13.48-27.37-7.18-8.27,5.34-13.86,18.4-7.17,27.37l26.13-19.53c-.94-.86-1.87-1.73-2.78-2.61-1.39-1.33-2.75-2.67-4.1-4-2.71-2.71-5.37-5.47-8.05-8.21-5.42-5.56-10.93-11-16.42-16.51L105.09,231.8,40.5,167.21l-33-33c-6.36-6.35-1.88-3.58-15,8.32-13.4,12.2-15.83,7.57-9.41,13.71,2.77,2.65,5.46,5.38,8.14,8.11q8.1,8.28,16.28,16.48l66.26,66.25,72.8,72.8c7.4,7.41,21,8,28.28,0S182.82,299.54,174.91,291.63Z" style="fill:#d0c5b6"/><path d="M10.77,305.77-5.84,289.16l-39.67-39.67L-93.7,201.3l-41.5-41.5c-6.74-6.74-13.27-13.83-20.29-20.28a3.83,3.83,0,0,1-.28-.29c-3.22-3.22-8.22,1.78-5,5l16.61,16.61,39.67,39.67L-56.3,248.7l41.5,41.5C-8.06,296.94-1.53,304,5.49,310.48a3.83,3.83,0,0,1,.28.29c3.22,3.22,8.22-1.78,5-5Z" style="fill:#d0c5b6"/><path d="M24.91,291.63C-26.89,239.83-79.2,188.47-130.43,136.1c-7.4-7.57-15.64-17.93-27.22-17.87-15.28.08-27.1,14.34-23.41,29.44,2.42,9.85,13.06,17.61,20,24.54l19.18,19.18,77.67,77.67c14.46,14.46,29,28.83,43.31,43.47,8,8.2,16.92,19.68,29.51,19.24,16.9-.59,30.52-21.22,19.44-36.09C21.8,287.32,10.45,282.2.67,288.5c-8.27,5.34-13.86,18.4-7.17,27.37l26.13-19.53c-.94-.86-1.87-1.73-2.78-2.61-1.39-1.33-2.75-2.67-4.1-4-2.71-2.71-5.37-5.47-8-8.21-5.42-5.56-10.93-11-16.42-16.51L-44.91,231.8l-64.59-64.59-33-33c-6.36-6.35-1.88-3.58-15,8.32-13.4,12.2-15.83,7.57-9.41,13.71,2.77,2.65,5.46,5.38,8.14,8.11q8.1,8.28,16.28,16.48l66.26,66.25,72.8,72.8c7.4,7.41,21,8,28.28,0S32.82,299.54,24.91,291.63Z" style="fill:#d0c5b6"/><path d="M310.77,155.77l-16.61-16.61L254.49,99.49,206.3,51.31,164.8,9.8C158.06,3.06,151.53-4,144.51-10.48a3.83,3.83,0,0,1-.28-.29C141-14,136-9,139.23-5.77l16.61,16.61,39.67,39.67L243.7,98.7l41.5,41.5c6.74,6.74,13.27,13.83,20.29,20.28a3.83,3.83,0,0,1,.28.29c3.22,3.22,8.22-1.78,5-5Z" style="fill:#d0c5b6"/><path d="M324.91,141.63C273.11,89.83,220.8,38.47,169.57-13.9c-7.4-7.57-15.64-17.93-27.22-17.87-15.28.08-27.1,14.34-23.41,29.44,2.42,9.85,13.06,17.61,20,24.54l19.18,19.18,77.67,77.67c14.46,14.46,29,28.83,43.31,43.47,8,8.2,16.92,19.68,29.51,19.24,16.9-.59,30.52-21.22,19.44-36.09-6.24-8.36-17.59-13.48-27.37-7.18-8.27,5.34-13.86,18.4-7.17,27.37l26.13-19.53c-.94-.86-1.87-1.73-2.78-2.61-1.39-1.33-2.75-2.67-4.1-4-2.71-2.71-5.37-5.46-8.05-8.21-5.42-5.56-10.93-11-16.42-16.51L255.09,81.8,190.5,17.21l-33-33c-6.36-6.35-1.88-3.58-15,8.33-13.4,12.19-15.83,7.56-9.41,13.7,2.77,2.65,5.46,5.38,8.14,8.11q8.1,8.28,16.28,16.48l66.26,66.26,72.8,72.8c7.4,7.4,21,8,28.28,0S332.82,149.54,324.91,141.63Z" style="fill:#d0c5b6"/><path d="M160.77,155.77l-16.61-16.61L104.49,99.49,56.3,51.31,14.8,9.8C8.06,3.06,1.53-4-5.49-10.48a3.83,3.83,0,0,1-.28-.29C-9-14-14-9-10.77-5.77L5.84,10.84,45.51,50.51,93.7,98.7l41.5,41.5c6.74,6.74,13.27,13.83,20.29,20.28a3.83,3.83,0,0,1,.28.29c3.22,3.22,8.22-1.78,5-5Z" style="fill:#d0c5b6"/><path d="M174.91,141.63C123.11,89.83,70.8,38.47,19.57-13.9,12.17-21.47,3.93-31.83-7.65-31.77c-15.28.08-27.1,14.34-23.41,29.44,2.42,9.85,13.06,17.61,20,24.54L8.11,41.39l77.67,77.67c14.46,14.46,29,28.83,43.31,43.47,8,8.2,16.92,19.68,29.51,19.24,16.9-.59,30.52-21.22,19.44-36.09-6.24-8.36-17.59-13.48-27.37-7.18-8.27,5.34-13.86,18.4-7.17,27.37l26.13-19.53c-.94-.86-1.87-1.73-2.78-2.61-1.39-1.33-2.75-2.67-4.1-4-2.71-2.71-5.37-5.46-8.05-8.21-5.42-5.56-10.93-11-16.42-16.51L105.09,81.8,40.5,17.21l-33-33c-6.36-6.35-1.88-3.58-15,8.33C-20.84,4.76-23.27.13-16.85,6.27c2.77,2.65,5.46,5.38,8.14,8.11q8.1,8.28,16.28,16.48L73.83,97.12l72.8,72.8c7.4,7.4,21,8,28.28,0S182.82,149.54,174.91,141.63Z" style="fill:#d0c5b6"/><path d="M10.77,155.77-5.84,139.16-45.51,99.49-93.7,51.31-135.2,9.8C-141.94,3.06-148.47-4-155.49-10.48a3.83,3.83,0,0,1-.28-.29c-3.22-3.22-8.22,1.78-5,5l16.61,16.61,39.67,39.67L-56.3,98.7l41.5,41.5C-8.06,146.94-1.53,154,5.49,160.48a3.83,3.83,0,0,1,.28.29c3.22,3.22,8.22-1.78,5-5Z" style="fill:#d0c5b6"/><path d="M24.91,141.63C-26.89,89.83-79.2,38.47-130.43-13.9c-7.4-7.57-15.64-17.93-27.22-17.87-15.28.08-27.1,14.34-23.41,29.44,2.42,9.85,13.06,17.61,20,24.54l19.18,19.18,77.67,77.67c14.46,14.46,29,28.83,43.31,43.47,8,8.2,16.92,19.68,29.51,19.24,16.9-.59,30.52-21.22,19.44-36.09C21.8,137.32,10.45,132.2.67,138.5c-8.27,5.34-13.86,18.4-7.17,27.37l26.13-19.53c-.94-.86-1.87-1.73-2.78-2.61-1.39-1.33-2.75-2.67-4.1-4-2.71-2.71-5.37-5.46-8-8.21-5.42-5.56-10.93-11-16.42-16.51L-44.91,81.8-109.5,17.21l-33-33c-6.36-6.35-1.88-3.58-15,8.33-13.4,12.19-15.83,7.56-9.41,13.7,2.77,2.65,5.46,5.38,8.14,8.11q8.1,8.28,16.28,16.48l66.26,66.26,72.8,72.8c7.4,7.4,21,8,28.28,0S32.82,149.54,24.91,141.63Z" style="fill:#d0c5b6"/><path d="M310.77,5.77l-16.61-16.6L254.49-50.5,206.3-98.69,164.8-140.2c-6.74-6.74-13.27-13.82-20.29-20.28a3.83,3.83,0,0,1-.28-.29c-3.22-3.22-8.22,1.78-5,5l16.61,16.61,39.67,39.67L243.7-51.3,285.2-9.8C291.94-3.06,298.47,4,305.49,10.48a3.83,3.83,0,0,1,.28.29c3.22,3.22,8.22-1.78,5-5Z" style="fill:#d0c5b6"/><path d="M324.91-8.37C273.11-60.17,220.8-111.53,169.57-163.9c-7.4-7.57-15.64-17.93-27.22-17.87-15.28.09-27.1,14.34-23.41,29.44,2.42,9.85,13.06,17.62,20,24.54l19.18,19.18,77.67,77.67c14.46,14.47,29,28.83,43.31,43.47,8,8.2,16.92,19.68,29.51,19.24,16.9-.59,30.52-21.22,19.44-36.09-6.24-8.36-17.59-13.48-27.37-7.18-8.27,5.34-13.86,18.4-7.17,27.37L319.63-3.66c-.94-.86-1.87-1.73-2.78-2.61-1.39-1.32-2.75-2.67-4.1-4C310-13,307.38-15.75,304.7-18.5c-5.42-5.55-10.93-11-16.42-16.51L255.09-68.2,190.5-132.79l-33-33c-6.36-6.35-1.88-3.58-15,8.33-13.4,12.19-15.83,7.56-9.41,13.71,2.77,2.64,5.46,5.37,8.14,8.1q8.1,8.28,16.28,16.48l66.26,66.26,72.8,72.8c7.4,7.4,21,8,28.28,0S332.82-.46,324.91-8.37Z" style="fill:#d0c5b6"/><path d="M160.77,5.77l-16.61-16.6L104.49-50.5,56.3-98.69,14.8-140.2C8.06-146.94,1.53-154-5.49-160.48a3.83,3.83,0,0,1-.28-.29c-3.22-3.22-8.22,1.78-5,5L5.84-139.16,45.51-99.49,93.7-51.3,135.2-9.8C141.94-3.06,148.47,4,155.49,10.48a3.83,3.83,0,0,1,.28.29c3.22,3.22,8.22-1.78,5-5Z" style="fill:#d0c5b6"/><path d="M174.91-8.37C123.11-60.17,70.8-111.53,19.57-163.9c-7.4-7.57-15.64-17.93-27.22-17.87-15.28.09-27.1,14.34-23.41,29.44,2.42,9.85,13.06,17.62,20,24.54L8.11-108.61,85.78-30.94c14.46,14.47,29,28.83,43.31,43.47,8,8.2,16.92,19.68,29.51,19.24,16.9-.59,30.52-21.22,19.44-36.09-6.24-8.36-17.59-13.48-27.37-7.18-8.27,5.34-13.86,18.4-7.17,27.37L169.63-3.66c-.94-.86-1.87-1.73-2.78-2.61-1.39-1.32-2.75-2.67-4.1-4C160-13,157.38-15.75,154.7-18.5c-5.42-5.55-10.93-11-16.42-16.51L105.09-68.2,40.5-132.79l-33-33c-6.36-6.35-1.88-3.58-15,8.33-13.4,12.19-15.83,7.56-9.41,13.71,2.77,2.64,5.46,5.37,8.14,8.1q8.1,8.28,16.28,16.48L73.83-52.88l72.8,72.8c7.4,7.4,21,8,28.28,0S182.82-.46,174.91-8.37Z" style="fill:#d0c5b6"/><path d="M10.77,5.77-5.84-10.83-45.51-50.5-93.7-98.69l-41.5-41.51c-6.74-6.74-13.27-13.82-20.29-20.28a3.83,3.83,0,0,1-.28-.29c-3.22-3.22-8.22,1.78-5,5l16.61,16.61,39.67,39.67L-56.3-51.3-14.8-9.8C-8.06-3.06-1.53,4,5.49,10.48a3.83,3.83,0,0,1,.28.29C9,14,14,9,10.77,5.77Z" style="fill:#d0c5b6"/><path d="M24.91-8.37C-26.89-60.17-79.2-111.53-130.43-163.9c-7.4-7.57-15.64-17.93-27.22-17.87-15.28.09-27.1,14.34-23.41,29.44,2.42,9.85,13.06,17.62,20,24.54l19.18,19.18,77.67,77.67c14.46,14.47,29,28.83,43.31,43.47,8,8.2,16.92,19.68,29.51,19.24C25.5,31.18,39.12,10.55,28-4.32,21.8-12.68,10.45-17.8.67-11.5-7.6-6.16-13.19,6.9-6.5,15.87L19.63-3.66c-.94-.86-1.87-1.73-2.78-2.61-1.39-1.32-2.75-2.67-4.1-4C10-13,7.38-15.75,4.7-18.5-.72-24-6.23-29.52-11.72-35L-44.91-68.2l-64.59-64.59-33-33c-6.36-6.35-1.88-3.58-15,8.33-13.4,12.19-15.83,7.56-9.41,13.71,2.77,2.64,5.46,5.37,8.14,8.1q8.1,8.28,16.28,16.48l66.26,66.26,72.8,72.8c7.4,7.4,21,8,28.28,0S32.82-.46,24.91-8.37Z" style="fill:#d0c5b6"/></pattern></defs><rect width="150" height="150" style="fill:url(#small_line_pattern)"/></svg>